<svg width="1024" height="1024" viewBox="0 0 1024 1024" fill="none" xmlns="http://www.w3.org/2000/svg">
<g clip-path="url(#clip0_4_127)">
<mask id="mask0_4_127" style="mask-type:luminance" maskUnits="userSpaceOnUse" x="0" y="0" width="1024" height="1024">
<path d="M1024 0H0V1024H1024V0Z" fill="white"/>
</mask>
<g mask="url(#mask0_4_127)">
<mask id="mask1_4_127" style="mask-type:alpha" maskUnits="userSpaceOnUse" x="0" y="0" width="1024" height="1024">
<path d="M824 0H200C89.5431 0 0 89.5431 0 200V824C0 934.457 89.5431 1024 200 1024H824C934.457 1024 1024 934.457 1024 824V200C1024 89.5431 934.457 0 824 0Z" fill="white"/>
</mask>
<g mask="url(#mask1_4_127)">
<path d="M0 0C337.92 0 675.84 0 1024 0C1024 337.92 1024 675.84 1024 1024C686.08 1024 348.16 1024 0 1024C0 686.08 0 348.16 0 0Z" fill="#FAFBFB"/>
<path d="M597 872L817 671.84L1210.62 836.908L994 1062L597 872Z" fill="url(#paint0_linear_4_127)"/>
<path d="M962.447 1106.76L565.5 907.5L335 1129L736.269 1340L962.447 1106.76Z" fill="url(#paint1_linear_4_127)"/>
<path d="M81 1289.5L509.5 883.5L159.5 706L-257 1072.4L81 1289.5Z" fill="url(#paint2_linear_4_127)"/>
<path d="M408 481.42L762.5 646.489L548 850.5L194.793 671.84L408 481.42Z" fill="url(#paint3_linear_4_127)"/>
<path d="M29.4998 307.5L359.5 457.5L145 646.489L-178.035 481.42L29.4998 307.5Z" fill="url(#paint4_linear_4_127)"/>
<path d="M-68 836.908L108 687.5L-20.5 617.5L-186.5 752L-68 836.908Z" fill="url(#paint5_linear_4_127)"/>
<path d="M861 630.5L1060.03 446.491L1280 514.659L1080 720.5L861 630.5Z" fill="url(#paint6_linear_4_127)"/>
<path d="M470.021 343.234C533.938 315.754 608.735 321.119 653.294 321.957C655.962 321.96 658.631 321.961 661.3 321.963H661.303C668.35 321.969 675.396 321.986 682.437 322.005L682.436 322.006C689.042 322.022 695.649 322.029 702.264 322.037L704.1 322.039H704.101C718.204 322.057 732.306 322.086 746.407 322.122L756.382 322.147V330.935C756.546 331.561 756.802 332.485 757.164 333.639C757.928 336.074 759.138 339.47 760.893 343.241C764.477 350.946 769.948 359.386 777.752 364.873L803.794 383.184L771.959 383.053L766.388 383.03V383.029C757.639 382.994 748.89 382.965 740.141 382.939L713.892 382.876C704.892 382.858 695.887 382.835 686.881 382.796C678.179 382.758 669.475 382.738 660.769 382.729H660.76C657.492 382.723 654.223 382.711 650.954 382.692C627.296 383.057 577.999 383.084 541.469 389.555C504.007 396.19 488.423 402.862 480.367 409.565C475.903 413.28 472.302 419.316 472.016 425.827C471.753 431.807 474.216 439.945 485.254 448.576C490.193 452.438 498.018 455.753 510.441 459.389C522.766 462.996 537.97 466.49 557.403 471.45C579.835 476.328 605.092 481.937 628.166 491.618C651.042 501.216 672.526 515.111 687.409 537.03L688.113 538.08L688.431 538.561L688.691 539.075C695.704 552.903 700.369 575.412 692.316 599.097C684.15 623.117 663.468 646.735 622.781 663.527C582.479 682.041 539.867 694.36 497.302 704.015L497.301 704.014C492.993 705.001 488.69 706.026 484.381 707.081C475.112 709.35 465.834 711.514 456.594 713.649L456.595 713.65L453.291 714.419H453.289C413.892 723.573 374.362 731.476 334.617 738.59L334.616 738.589L328.219 739.743L328.212 739.744C322.158 740.832 316.104 741.902 310.056 742.965L304.577 743.948L304.547 743.954L304.517 743.959C295.539 745.512 282.714 747 277.562 747H263.982L268.013 734.032C273.221 717.275 268.68 697.201 265.676 689.451L261.05 677.517L273.749 675.915C354.655 665.71 433.415 653.858 532.519 623.408C566.658 612.919 588.138 607.011 602.316 601.294C616.128 595.725 619.832 591.527 621.634 586.249C625.436 575.108 622.207 566.555 616.253 559.391C609.957 551.816 601.003 546.434 595.208 543.313C590.436 540.743 579.408 537.213 563.8 533.196C548.62 529.289 530.239 525.192 511.638 521.271C465.983 511.648 438.413 492.828 422.903 471.36C407.468 449.996 404.797 427.133 406.833 410.869C409.023 393.373 422.512 363.66 470.021 343.234Z" fill="#033946" stroke="white" stroke-width="20"/>
<path d="M261 717C261 756.765 228.765 789 189 789C149.235 789 117 756.765 117 717C117 677.235 149.235 645 189 645C228.765 645 261 677.235 261 717ZM158.276 717C158.276 733.969 172.031 747.724 189 747.724C205.969 747.724 219.724 733.969 219.724 717C219.724 700.031 205.969 686.276 189 686.276C172.031 686.276 158.276 700.031 158.276 717Z" fill="#006D77"/>
<mask id="mask2_4_127" style="mask-type:luminance" maskUnits="userSpaceOnUse" x="97" y="625" width="184" height="184">
<path d="M281 625H97V809H281V625Z" fill="white"/>
<path d="M261 717C261 756.765 228.765 789 189 789C149.235 789 117 756.765 117 717C117 677.235 149.235 645 189 645C228.765 645 261 677.235 261 717ZM158.276 717C158.276 733.969 172.031 747.724 189 747.724C205.969 747.724 219.724 733.969 219.724 717C219.724 700.031 205.969 686.276 189 686.276C172.031 686.276 158.276 700.031 158.276 717Z" fill="black"/>
</mask>
<g mask="url(#mask2_4_127)">
<path d="M261 717C261 756.765 228.765 789 189 789C149.235 789 117 756.765 117 717C117 677.235 149.235 645 189 645C228.765 645 261 677.235 261 717ZM158.276 717C158.276 733.969 172.031 747.724 189 747.724C205.969 747.724 219.724 733.969 219.724 717C219.724 700.031 205.969 686.276 189 686.276C172.031 686.276 158.276 700.031 158.276 717Z" stroke="white" stroke-width="40"/>
</g>
<path d="M835 226C880.287 226 917 262.713 917 308C917 353.287 880.287 390 835 390C789.713 390 753 353.287 753 308C753 262.713 789.713 226 835 226ZM835 287.275C823.554 287.275 814.275 296.554 814.275 308C814.275 319.446 823.554 328.725 835 328.725C846.446 328.725 855.725 319.446 855.725 308C855.725 296.554 846.446 287.275 835 287.275Z" fill="#EA9A0D" stroke="white" stroke-width="20"/>
</g>
</g>
</g>
<defs>
<linearGradient id="paint0_linear_4_127" x1="511.5" y1="331" x2="511.5" y2="1340" gradientUnits="userSpaceOnUse">
<stop stop-color="white" stop-opacity="0.2"/>
<stop offset="1" stop-color="#006D77" stop-opacity="0.3"/>
</linearGradient>
<linearGradient id="paint1_linear_4_127" x1="511.5" y1="331" x2="511.5" y2="1340" gradientUnits="userSpaceOnUse">
<stop stop-color="white" stop-opacity="0.2"/>
<stop offset="1" stop-color="#006D77" stop-opacity="0.3"/>
</linearGradient>
<linearGradient id="paint2_linear_4_127" x1="511.5" y1="331" x2="511.5" y2="1340" gradientUnits="userSpaceOnUse">
<stop stop-color="white" stop-opacity="0.2"/>
<stop offset="1" stop-color="#006D77" stop-opacity="0.3"/>
</linearGradient>
<linearGradient id="paint3_linear_4_127" x1="511.5" y1="331" x2="511.5" y2="1340" gradientUnits="userSpaceOnUse">
<stop stop-color="white" stop-opacity="0.2"/>
<stop offset="1" stop-color="#006D77" stop-opacity="0.3"/>
</linearGradient>
<linearGradient id="paint4_linear_4_127" x1="511.5" y1="331" x2="511.5" y2="1340" gradientUnits="userSpaceOnUse">
<stop stop-color="white" stop-opacity="0.2"/>
<stop offset="1" stop-color="#006D77" stop-opacity="0.3"/>
</linearGradient>
<linearGradient id="paint5_linear_4_127" x1="511.5" y1="331" x2="511.5" y2="1340" gradientUnits="userSpaceOnUse">
<stop stop-color="white" stop-opacity="0.2"/>
<stop offset="1" stop-color="#006D77" stop-opacity="0.3"/>
</linearGradient>
<linearGradient id="paint6_linear_4_127" x1="511.5" y1="331" x2="511.5" y2="1340" gradientUnits="userSpaceOnUse">
<stop stop-color="white" stop-opacity="0.2"/>
<stop offset="1" stop-color="#006D77" stop-opacity="0.3"/>
</linearGradient>
<clipPath id="clip0_4_127">
<rect width="1024" height="1024" fill="white"/>
</clipPath>
</defs>
</svg>
